HIERARCHY
ROOT hip
{
  OFFSET 0 0 0
  CHANNELS 6 Xposition Yposition Zposition Zrotation Yrotation Xrotation
  JOINT abdomen
  {
    OFFSET 0 20.6881 -0.73152
    CHANNELS 3 Zrotation Xrotation Yrotation
    JOINT chest
    {
      OFFSET 0 11.7043 -0.48768
      CHANNELS 3 Zrotation Xrotation Yrotation
      JOINT neck
      {
        OFFSET 0 22.1894 -2.19456
        CHANNELS 3 Zrotation Xrotation Yrotation
        JOINT head
        {
          OFFSET -0.24384 7.07133 1.2192
          CHANNELS 3 Zrotation Xrotation Yrotation
          JOINT leftEye
          {
            OFFSET 4.14528 8.04674 8.04672
            CHANNELS 3 Zrotation Xrotation Yrotation
            End Site
            {
              OFFSET 1 0 0
            }
          }
          JOINT rightEye
          {
            OFFSET -3.6576 8.04674 8.04672
            CHANNELS 3 Zrotation Xrotation Yrotation
            End Site
            {
              OFFSET 1 0 0
            }
          }
        }
      }
      JOINT rCollar
      {
        OFFSET -2.68224 19.2634 -4.8768
        CHANNELS 3 Zrotation Xrotation Yrotation
        JOINT rShldr
        {
          OFFSET -8.77824 -1.95073 1.46304
          CHANNELS 3 Zrotation Xrotation Yrotation
          JOINT rForeArm
          {
            OFFSET -28.1742 -1.7115 0.48768
            CHANNELS 3 Zrotation Xrotation Yrotation
            JOINT rHand
            {
              OFFSET -22.5879 0.773209 7.07136
              CHANNELS 3 Zrotation Xrotation Yrotation
              JOINT rThumb1
              {
                OFFSET -1.2192 -0.487915 3.41376
                CHANNELS 3 Zrotation Xrotation Yrotation
                JOINT rThumb2
                {
                  OFFSET -3.37035 -0.52449 3.41376
                  CHANNELS 3 Zrotation Xrotation Yrotation
                  End Site
                  {
                    OFFSET -1.78271 -1.18214 1.43049
                  }
                }
              }
              JOINT rIndex1
              {
                OFFSET -7.75947 0.938293 5.60832
                CHANNELS 3 Zrotation Xrotation Yrotation
                JOINT rIndex2
                {
                  OFFSET -2.54057 -0.884171 1.56538
                  CHANNELS 3 Zrotation Xrotation Yrotation
                  End Site
                  {
                    OFFSET -1.62519 -0.234802 1.16502
                  }
                }
              }
              JOINT rMid1
              {
                OFFSET -8.24714 1.18213 3.41376
                CHANNELS 3 Zrotation Xrotation Yrotation
                JOINT rMid2
                {
                  OFFSET -3.10165 -0.590103 1.0647
                  CHANNELS 3 Zrotation Xrotation Yrotation
                  End Site
                  {
                    OFFSET -2.48547 -0.328903 0.83742
                  }
                }
              }
              JOINT rRing1
              {
                OFFSET -8.82822 0.546677 1.51678
                CHANNELS 3 Zrotation Xrotation Yrotation
                JOINT rRing2
                {
                  OFFSET -2.60934 -0.819778 -0.0198488
                  CHANNELS 3 Zrotation Xrotation Yrotation
                  End Site
                  {
                    OFFSET -2.33842 -0.294052 0.168128
                  }
                }
              }
              JOINT rPinky1
              {
                OFFSET -8.27202 -0.0477905 -0.4584
                CHANNELS 3 Zrotation Xrotation Yrotation
                JOINT rPinky2
                {
                  OFFSET -1.82734 -0.647385 -0.700984
                  CHANNELS 3 Zrotation Xrotation Yrotation
                  End Site
                  {
                    OFFSET -1.69225 -0.51767 -0.607171
                  }
                }
              }
            }
          }
        }
      }
      JOINT lCollar
      {
        OFFSET 2.68224 19.2634 -4.8768
        CHANNELS 3 Zrotation Xrotation Yrotation
        JOINT lShldr
        {
          OFFSET 8.77824 -1.95073 1.46304
          CHANNELS 3 Zrotation Xrotation Yrotation
          JOINT lForeArm
          {
            OFFSET 28.1742 -1.7115 0.48768
            CHANNELS 3 Zrotation Xrotation Yrotation
            JOINT lHand
            {
              OFFSET 22.5879 0.773209 7.07136
              CHANNELS 3 Zrotation Xrotation Yrotation
              JOINT lThumb1
              {
                OFFSET 1.2192 -0.487915 3.41376
                CHANNELS 3 Zrotation Xrotation Yrotation
                JOINT lThumb2
                {
                  OFFSET 3.37035 -0.52449 3.41376
                  CHANNELS 3 Zrotation Xrotation Yrotation
                  End Site
                  {
                    OFFSET 1.78271 -1.18214 1.43049
                  }
                }
              }
              JOINT lIndex1
              {
                OFFSET 7.75947 0.938293 5.60832
                CHANNELS 3 Zrotation Xrotation Yrotation
                JOINT lIndex2
                {
                  OFFSET 2.54057 -0.884171 1.56538
                  CHANNELS 3 Zrotation Xrotation Yrotation
                  End Site
                  {
                    OFFSET 1.62519 -0.234802 1.16502
                  }
                }
              }
              JOINT lMid1
              {
                OFFSET 8.24714 1.18213 3.41376
                CHANNELS 3 Zrotation Xrotation Yrotation
                JOINT lMid2
                {
                  OFFSET 3.10165 -0.590103 1.0647
                  CHANNELS 3 Zrotation Xrotation Yrotation
                  End Site
                  {
                    OFFSET 2.48547 -0.328903 0.83742
                  }
                }
              }
              JOINT lRing1
              {
                OFFSET 8.82822 0.546677 1.51678
                CHANNELS 3 Zrotation Xrotation Yrotation
                JOINT lRing2
                {
                  OFFSET 2.60934 -0.819778 -0.0198488
                  CHANNELS 3 Zrotation Xrotation Yrotation
                  End Site
                  {
                    OFFSET 2.33842 -0.294052 0.168128
                  }
                }
              }
              JOINT lPinky1
              {
                OFFSET 8.27202 -0.0477905 -0.4584
                CHANNELS 3 Zrotation Xrotation Yrotation
                JOINT lPinky2
                {
                  OFFSET 1.82734 -0.647385 -0.700984
                  CHANNELS 3 Zrotation Xrotation Yrotation
                  End Site
                  {
                    OFFSET 1.69225 -0.51767 -0.607171
                  }
                }
              }
            }
          }
        }
      }
    }
  }
  JOINT rButtock
  {
    OFFSET -8.77824 4.35084 1.2192
    CHANNELS 3 Zrotation Xrotation Yrotation
    JOINT rThigh
    {
      OFFSET 0 -1.70687 -2.19456
      CHANNELS 3 Zrotation Xrotation Yrotation
      JOINT rShin
      {
        OFFSET 0 -36.8199 0.73152
        CHANNELS 3 Zrotation Xrotation Yrotation
        JOINT rFoot
        {
          OFFSET 0.73152 -45.1104 -5.12064
          CHANNELS 3 Zrotation Xrotation Yrotation
          End Site
          {
            OFFSET -1.1221 -3.69964 12.103
          }
        }
      }
    }
  }
  JOINT lButtock
  {
    OFFSET 8.77824 4.35084 1.2192
    CHANNELS 3 Zrotation Xrotation Yrotation
    JOINT lThigh
    {
      OFFSET 0 -1.70687 -2.19456
      CHANNELS 3 Zrotation Xrotation Yrotation
      JOINT lShin
      {
        OFFSET 0 -36.8199 0.73152
        CHANNELS 3 Zrotation Xrotation Yrotation
        JOINT lFoot
        {
          OFFSET -0.73152 -45.1104 -5.12064
          CHANNELS 3 Zrotation Xrotation Yrotation
          End Site
          {
            OFFSET 1.1221 -3.69964 12.103
          }
        }
      }
    }
  }
}
MOTION
Frames:	8
Frame Time:	0.00833333
-67.7772 85.9575 -4.46657 -0.0 0.0 -0.0 -0.0 -4.771896 -180.0 0.0 -4.771896 -180.0 2.348711 19.742543 -170.817555 5.72704 19.065302 169.446286 -0.0 -0.0 0.0 -0.0 -0.0 0.0 -155.460052 -3.227798 161.777534 23.198038 -15.362493 15.83025 -176.880395 -6.592034 178.753119 -3.845864 12.245587 -0.008067 -5.26295 5.103044 1.036734 -158.488597 -66.202417 113.323094 -1.39698 2.231723 0.807408 173.65975 -30.581185 107.514629 -159.365121 -2.685504 142.597465 5.460511 2.945817 0.473409 -145.119721 0.310087 -179.225753 -140.382103 -33.367532 -173.39952 1.357024 3.654907 1.246711 -1.024251 -2.538442 -0.978828 158.417022 -29.366393 -166.793865 170.349976 -29.049062 -157.398026 -176.58994 65.790669 -151.342228 -172.928166 -9.857585 -144.622915 -81.971691 -50.091534 -32.722881 14.350739 -42.619131 30.647532 152.105085 -18.556554 -121.367907 -10.533778 21.803494 5.783939 125.644075 49.839986 -115.274123 9.514291 36.383237 -7.193999 -0.000474 0.063839 -0.020056 163.625575 20.632084 -168.786085 146.184456 15.332341 142.71147 145.871731 13.910772 142.111827 -0.0 0.0 -0.0 -0.0 -2.27635 -180.0 -4.055723 -2.993391 -143.675094 72.408322 -56.754181 -23.284793 -0.0 0.0 -0.0 -0.0 -2.27635 -180.0 4.055723 -2.993391 143.675094 -72.408322 -56.754181 23.284793
-65.4847 85.8162 -4.69085 -0.0 0.0 -0.0 -0.0 -4.771896 -180.0 -0.0 -4.771896 -180.0 -6.906697 5.093511 -50.165498 8.325947 2.056425 50.323376 0.0 -0.0 -0.0 0.0 -0.0 -0.0 -155.417258 -2.951435 161.718542 29.939692 -34.666 17.422848 173.355979 6.259658 177.936341 -17.238531 44.901397 5.523481 179.143032 -18.272578 89.128941 35.979424 -71.000586 26.054585 -142.226895 -0.988085 117.059192 156.915282 -70.616362 91.790641 -153.32078 13.628946 138.862343 -4.042074 26.81433 5.264109 -145.119209 0.22664 -179.199539 21.133955 7.389787 -8.151676 -4.66183 -10.865904 -4.365617 -154.045522 28.500874 -147.642958 9.651699 34.836178 -11.199233 -6.88946 75.702422 -1.517812 -0.780723 39.249098 31.82243 -166.858167 -26.456952 -142.131397 93.743665 37.963835 -53.548561 117.644503 -13.554448 -73.44599 173.762554 -52.872945 -119.8247 161.375945 -31.979384 -111.23194 36.036059 51.723116 -29.832321 156.255163 21.11997 -141.254569 -0.005029 1.688429 -0.530408 -0.918302 -26.574918 3.469979 80.939074 -51.227554 79.359772 155.714628 52.242932 152.235011 -0.0 0.0 -0.0 -0.0 -2.27635 -180.0 -4.055723 -2.993391 -143.675094 72.408322 -56.754181 -23.284793 -0.0 0.0 -0.0 -0.0 -2.27635 -180.0 4.055723 -2.993391 143.675094 -72.408322 -56.754181 23.284793
-62.978 85.7396 -4.75936 -0.0 0.0 -0.0 -0.0 -4.771896 -180.0 0.0 -4.771896 180.0 -5.929848 16.114934 -117.188029 11.727833 12.593958 116.729595 -0.0 0.0 -0.0 -0.0 0.0 -0.0 -142.973735 39.431617 147.390037 -151.980852 -2.335175 170.955575 -4.404931 49.617032 5.363732 0.925982 -2.946007 0.124713 -7.758532 7.439094 1.682075 -111.110859 -2.914109 100.398354 2.325555 -3.867927 -1.259147 -9.426125 12.644118 3.748221 -36.036059 51.723116 29.832321 5.389099 -12.570393 -3.870843 -145.10101 -1.438202 -178.676247 19.250903 -14.493286 -10.74811 -135.068796 -13.384184 -132.47003 -22.466413 -41.331852 -26.006198 155.504155 -3.514523 -161.838528 77.5647 69.065047 -98.229309 -38.717967 -65.999515 -2.219885 177.033807 21.401841 -144.672897 -1.590029 -1.575931 0.222909 -46.317521 -71.967547 15.275092 129.577218 16.761325 -108.78574 179.304299 -59.202585 -115.88227 151.476684 17.84174 -137.538824 166.735514 -26.059232 -145.498103 0.000142 -0.018512 0.005816 166.887666 -27.314091 -174.970562 46.800482 -48.625216 45.559379 7.986622 -24.45072 8.405 -0.0 0.0 -0.0 -0.0 -0.0 -0.0 7.208321 4.544735 80.680675 -151.03716 7.091531 91.021828 -0.0 0.0 -0.0 -0.0 -0.0 -0.0 -7.208321 4.544735 -80.680675 151.03716 7.091531 -91.021828
-60.46320000000001 85.7086 -4.77636 -0.0 0.0 -0.0 -0.0 -4.771896 -180.0 0.0 -4.771896 180.0 -8.063956 8.6533 -71.432562 10.752387 4.907224 71.581577 0.0 -0.0 -0.0 0.0 -0.0 -0.0 -155.460052 -3.227798 161.777534 -30.706902 64.588465 53.660166 32.053602 -77.308591 -6.174458 174.33711 -5.513912 144.960616 -5.26295 5.103044 1.036734 -66.215828 25.639205 61.899398 -10.571294 15.013433 6.865128 -169.166247 -6.589432 112.7782 23.903801 -61.333833 1.399383 161.258991 -62.841002 127.356569 -145.118942 0.185466 -179.186604 -64.762748 -77.953003 -96.617497 -8.191002 -17.575975 -7.729117 12.571894 44.372663 9.805484 13.015985 41.250126 -14.798846 53.948181 89.417436 -64.613428 -6.286988 32.376692 35.27115 -172.050302 -12.489029 -144.36229 93.743665 37.963835 -53.548561 82.545162 -3.772012 -59.574637 46.208543 39.652969 -36.318179 179.445364 -32.9689 -119.101514 36.036059 51.723116 -29.832321 175.388164 -42.088519 -146.407909 0.021291 -1.725169 0.542387 161.449929 31.887576 -166.151622 44.838755 -48.032887 43.620107 82.702865 -55.886145 82.24054 -0.0 0.0 -0.0 -0.0 -0.0 -0.0 7.038341 4.069833 76.29483 -4.664636 -1.629924 -78.598295 -0.0 0.0 -0.0 -0.0 -0.0 -0.0 -7.038341 4.069833 -76.29483 3.629419 -27.342285 86.305457
-58.154 85.7338 -4.85578 -0.0 0.0 -0.0 -0.0 -4.771896 -180.0 0.0 -4.771896 -180.0 -8.083765 8.817787 -72.371663 10.83366 5.051736 72.516632 0.0 0.0 0.0 0.0 0.0 0.0 2.185877 -15.733598 -3.202037 -168.829014 48.703191 169.229177 -8.650898 -6.480491 -27.83948 132.082708 -63.976985 114.210031 -5.433768 5.264911 1.077842 -66.195604 25.558097 61.92377 19.56865 -35.040283 -5.986264 78.549512 -53.664336 34.161158 -169.08961 -33.247392 145.374931 83.166601 -76.142609 52.11726 -145.099706 -1.521107 -178.650165 -143.403534 -15.55309 -177.325802 -147.905136 21.202328 -144.188758 -22.518966 -39.218543 -26.330589 80.1661 68.371792 -83.260848 -16.928444 14.030768 0.169595 -166.526596 -0.317884 -169.987671 55.7926 71.080054 -38.316481 -2.463212 -2.445814 0.326987 30.407049 24.342688 -25.764699 130.885192 15.213962 -109.736853 148.005876 5.523995 -123.279431 -0.047552 -0.138632 0.026316 166.539512 -4.871237 -143.327155 145.119466 0.267753 179.212454 -21.876211 19.762528 6.774687 25.537984 -38.087442 24.598474 -12.936418 44.257822 -10.724781 -0.0 0.0 -0.0 -0.0 -0.0 -0.0 7.008604 3.997062 75.611577 -84.757579 65.901691 12.602855 -0.0 0.0 -0.0 -0.0 -0.0 -0.0 3.633044 1.774681 35.797738 -153.016794 -21.349124 31.397278
-55.7553 85.8566 -4.76542 -0.0 0.0 -0.0 -0.0 -4.771896 -180.0 0.0 -4.771896 -180.0 -8.083765 8.817787 -72.371663 10.83366 5.051736 72.516632 0.0 0.0 0.0 0.0 0.0 0.0 2.185877 -15.733598 -3.202037 -168.829014 48.703191 169.229177 -8.650898 -6.480491 -27.83948 132.082708 -63.976985 114.210031 1.590029 -1.575931 -0.222909 -9.00353 9.709211 6.694366 1.506441 -2.484713 -0.828391 -173.630728 -14.470573 109.009189 -160.673322 -6.667841 143.245105 81.790686 -77.516345 50.224958 -145.099691 -1.522044 -178.64987 22.252947 30.710553 -5.189146 -44.069432 -47.78389 -42.859786 -20.308427 -39.825658 -20.361466 80.1661 68.371792 -83.260848 -16.926784 14.142456 0.162407 66.24597 -83.227972 72.334437 -4.441052 -13.702099 -1.006441 -93.028426 -51.083891 -40.500925 88.802009 38.094552 -48.912458 -179.29168 -59.501832 -116.31629 3.564664 32.06291 -10.374906 -68.983989 -80.15399 -40.578188 -21.015136 -42.4154 -4.340526 145.119721 0.310087 179.225753 -21.93982 21.089023 6.639016 145.499137 13.103982 142.110579 -9.508619 12.887034 -1.462601 -0.0 0.0 -0.0 -0.0 -0.0 -0.0 7.008604 3.997062 75.611577 -84.757579 65.901691 12.602855 -0.0 0.0 -0.0 -0.0 -0.0 -0.0 3.633044 1.774681 35.797738 -153.016794 -21.349124 31.397278
-52.9718 86.0309 -4.55792 -0.0 0.0 -0.0 -0.0 -4.771896 -180.0 -0.0 -4.771896 180.0 6.420692 18.772882 165.134747 1.585462 19.741982 -166.473104 -0.0 -0.0 0.0 -0.0 -0.0 0.0 -150.168677 21.535282 155.275413 -157.719578 -26.805699 167.036797 123.75522 -66.599841 105.582444 -137.46137 68.498929 115.545113 -178.927535 -16.453687 89.421826 -13.399119 -48.860616 -0.478821 -7.259747 10.78091 4.54709 -0.375728 -0.585036 -2.439694 1.280764 -3.803196 -0.679863 -9.102949 22.999035 5.211175 -72.133176 72.974596 89.989695 21.633738 70.50296 -15.909208 -149.198149 25.859061 -145.26249 -144.661954 9.522788 -140.624638 142.973735 39.431617 -147.390037 -19.213928 13.697964 -8.297526 69.096182 -75.299231 85.759469 -28.959847 -55.403192 -17.61394 174.193348 -11.857374 -89.870273 -92.28602 -68.325389 -70.247112 33.797169 34.48579 -25.494234 175.406295 -21.457614 -118.30625 0.057679 0.167876 -0.032027 166.392999 -4.429675 -143.298383 -0.004873 1.771387 -0.556475 150.989586 60.916022 -154.726893 141.69975 1.898697 138.684874 -54.156815 82.258154 14.378043 -0.0 0.0 -0.0 -0.0 -0.0 -0.0 -4.919407 3.500227 -54.588129 88.891524 33.647607 -8.266405 -0.0 0.0 -0.0 -0.0 -0.0 -0.0 4.919407 3.500227 54.588129 -88.891524 33.647607 8.266405
-50.6911 85.9906 -4.31095 -0.0 0.0 -0.0 -0.0 -4.771896 -180.0 0.0 -4.771896 180.0 -8.063956 8.6533 -71.432562 10.752387 4.907224 71.581577 0.0 -0.0 -0.0 0.0 -0.0 -0.0 -155.460052 -3.227798 161.777534 -30.706902 64.588465 53.660166 32.053602 -77.308591 -6.174458 174.33711 -5.513912 144.960616 -4.166296 4.057514 0.783763 19.266099 -26.664312 -10.529432 -140.684449 1.505836 116.183204 177.351716 -62.143781 109.766746 6.908911 -21.623998 -2.809719 179.572779 -41.693234 141.326847 0.004875 1.770451 0.556181 -15.869825 62.0198 18.003064 -149.120208 25.572782 -145.198809 4.429749 -0.01187 -2.530576 13.015985 41.250126 -14.798846 53.948181 89.417436 -64.613428 -4.267038 26.729637 34.0802 -170.094666 -18.094099 -143.652505 85.829417 38.630721 -47.955432 21.846061 -7.425227 -33.143539 33.797169 34.48579 -25.494234 -2.739441 -4.728033 9.29909 160.673322 -6.667841 -143.245105 152.859447 15.019217 -139.717389 -0.003601 0.605621 -0.190249 0.030206 -0.248941 0.14564 -12.252484 41.424931 -10.280249 152.629415 19.397522 143.282858 -0.0 0.0 -0.0 -0.0 -0.0 -0.0 7.038341 4.069833 76.29483 -4.664636 -1.629924 -78.598295 -0.0 0.0 -0.0 -0.0 -0.0 -0.0 -7.038341 4.069833 -76.29483 3.629419 -27.342285 86.305457
